<svg width="38" height="46" viewBox="0 0 38 46" fill="none" xmlns="http://www.w3.org/2000/svg">
<path fill-rule="evenodd" clip-rule="evenodd" d="M8.62153 3.60063H12.6735C12.9116 1.61515 14.4865 0.0800171 16.397 0.0800171C18.2952 0.0800171 19.8623 1.59459 20.1152 3.55952L24.2235 3.60063C24.4527 3.60063 24.6363 3.78827 24.6363 4.02149V8.65369C24.6363 8.88691 24.4527 9.07366 24.2235 9.07366H8.62592C8.40105 9.07366 8.2122 8.88691 8.2122 8.65369V4.02149C8.21143 3.96638 8.22146 3.91167 8.2417 3.86055C8.26194 3.80942 8.29199 3.76292 8.3301 3.72374C8.3682 3.68456 8.4136 3.65349 8.46364 3.63235C8.51367 3.61122 8.56735 3.60043 8.62153 3.60063ZM28.1191 27.2102C33.1672 27.2102 37.257 31.3724 37.257 36.5049C37.257 41.6402 33.1646 45.8006 28.1191 45.8006C23.071 45.8006 18.9821 41.6375 18.9821 36.5049C18.9821 31.3697 23.0736 27.2102 28.1191 27.2102ZM31.7126 36.7239C31.9998 36.7113 32.2045 36.6139 32.3222 36.4317C32.6428 35.9429 32.2054 35.4613 31.9023 35.1217L28.669 31.778C28.3203 31.4286 27.9171 31.4233 27.5675 31.778L24.2568 35.2129C23.9731 35.5381 23.6226 35.9813 23.9178 36.4317C24.0381 36.6139 24.2401 36.7113 24.5283 36.7239H26.1234V39.2437C26.1234 39.7226 26.5108 40.122 26.9869 40.122H29.2522C29.7292 40.122 30.1174 39.7271 30.1174 39.2437V36.7239H31.7126ZM4.11803 5.37702H6.22001V7.55461H4.11803C3.69904 7.55461 3.31694 7.73064 3.042 8.01033C2.76619 8.2909 2.59403 8.67871 2.59403 9.10404V37.2975C2.59403 37.722 2.76619 38.1107 3.042 38.3912C3.3187 38.6727 3.70167 38.8487 4.11803 38.8487H16.6447C16.7932 39.6029 17.011 40.332 17.2921 41.0272H4.11803C3.11227 41.0272 2.19436 40.6064 1.52942 39.9299C0.867114 39.2562 0.452515 38.3224 0.452515 37.2975V9.10404C0.452515 8.07824 0.865357 7.14626 1.52854 6.47162C2.19172 5.79699 3.10876 5.37702 4.11803 5.37702ZM30.2536 24.7985V9.10404C30.2536 8.67781 30.0814 8.29001 29.8065 8.00854C29.5208 7.71812 29.1335 7.55487 28.7296 7.55461H26.6285V5.37702H28.7296C29.7345 5.37702 30.6497 5.79788 31.3129 6.47162C31.9814 7.15162 32.3951 8.0836 32.3951 9.10404V25.4213C31.7108 25.1469 30.9941 24.937 30.2536 24.7985ZM12.0938 24.0783C11.4675 24.0783 10.958 23.5609 10.958 22.9238C10.958 22.2867 11.4675 21.7684 12.0938 21.7684H24.6389C25.2652 21.7684 25.7738 22.2867 25.7738 22.9238C25.7738 23.5609 25.2652 24.0783 24.6389 24.0783H12.0938ZM8.31409 21.6335C9.01416 21.6335 9.58248 22.2116 9.58248 22.9238C9.58248 23.6368 9.01416 24.2141 8.31409 24.2141C7.61401 24.2141 7.0457 23.6368 7.0457 22.9238C7.0457 22.2116 7.61401 21.6335 8.31409 21.6335ZM8.31409 28.6586C9.01416 28.6586 9.58248 29.2367 9.58248 29.9489C9.58248 30.662 9.01416 31.2392 8.31409 31.2392C7.61401 31.2392 7.0457 30.662 7.0457 29.9489C7.0457 29.2367 7.61401 28.6586 8.31409 28.6586ZM12.0947 31.1034C11.4684 31.1034 10.9589 30.586 10.9589 29.9489C10.9589 29.3118 11.4684 28.7935 12.0947 28.7935H19.2061C18.6143 29.501 18.1055 30.2762 17.69 31.1034H12.0947ZM8.31409 14.6101C9.01416 14.6101 9.58248 15.1874 9.58248 15.8995C9.58248 16.6126 9.01416 17.1898 8.31409 17.1898C7.61401 17.1898 7.0457 16.6126 7.0457 15.8995C7.0457 15.1874 7.61401 14.6101 8.31409 14.6101ZM12.0938 17.054C11.4675 17.054 10.958 16.5366 10.958 15.8995C10.958 15.2615 11.4675 14.7442 12.0938 14.7442H24.6389C25.2652 14.7442 25.7738 15.2615 25.7738 15.8995C25.7738 16.5366 25.2652 17.054 24.6389 17.054H12.0938ZM16.354 1.88143C17.4335 1.88143 18.3093 2.77141 18.3093 3.87138C18.3093 4.96956 17.4335 5.85954 16.354 5.85954C15.2736 5.85954 14.3987 4.96956 14.3987 3.87138C14.3987 2.77141 15.2736 1.88143 16.354 1.88143Z" fill="black"/>
</svg>
