<?xml version="1.0" encoding="UTF-8" standalone="no"?>
<!DOCTYPE svg PUBLIC "-//W3C//DTD SVG 1.1//EN"
 "http://www.w3.org/Graphics/SVG/1.1/DTD/svg11.dtd">
<!-- Generated by graphviz version 2.47.0 (20210316.0004)
 -->
<!-- Title: dependencies Pages: 1 -->
<svg width="3865pt" height="284pt"
 viewBox="0.00 0.00 3865.00 284.00" xmlns="http://www.w3.org/2000/svg" xmlns:xlink="http://www.w3.org/1999/xlink">
<g id="graph0" class="graph" transform="scale(1 1) rotate(0) translate(4 280)">
<title>dependencies</title>
<polygon fill="white" stroke="transparent" points="-4,4 -4,-280 3861,-280 3861,4 -4,4"/>
<text text-anchor="start" x="1907.51" y="-42.4" font-family="Times-12" font-weight="bold" font-size="14.00">Legend</text>
<polygon fill="#ffffb3" stroke="transparent" points="1694.5,-10 1694.5,-30 1714.5,-30 1714.5,-10 1694.5,-10"/>
<text text-anchor="start" x="1718.13" y="-15.4" font-family="Times-12" font-size="14.00"> &#160;Declarations</text>
<polygon fill="#8dd3c7" stroke="transparent" points="1807.5,-10 1807.5,-30 1827.5,-30 1827.5,-10 1807.5,-10"/>
<text text-anchor="start" x="1831.23" y="-15.4" font-family="Times-12" font-size="14.00"> &#160;Module</text>
<polygon fill="#80b1d3" stroke="transparent" points="1893.5,-10 1893.5,-30 1913.5,-30 1913.5,-10 1893.5,-10"/>
<text text-anchor="start" x="1917.28" y="-15.4" font-family="Times-12" font-size="14.00"> &#160;Bootstrap</text>
<polygon fill="#fdb462" stroke="transparent" points="1990.5,-10 1990.5,-30 2010.5,-30 2010.5,-10 1990.5,-10"/>
<text text-anchor="start" x="2014.17" y="-15.4" font-family="Times-12" font-size="14.00"> &#160;Providers</text>
<polygon fill="#fb8072" stroke="transparent" points="2086.5,-10 2086.5,-30 2106.5,-30 2106.5,-10 2086.5,-10"/>
<text text-anchor="start" x="2110.23" y="-15.4" font-family="Times-12" font-size="14.00"> &#160;Exports</text>
<g id="clust1" class="cluster">
<title>cluster_AppModule</title>
<polygon fill="none" stroke="black" stroke-dasharray="1,5" points="8,-70 8,-268 3849,-268 3849,-70 8,-70"/>
</g>
<g id="clust2" class="cluster">
<title>cluster_AppModule_declarations</title>
<polygon fill="none" stroke="black" points="584,-78 584,-130 3841,-130 3841,-78 584,-78"/>
</g>
<g id="clust23" class="cluster">
<title>cluster_AppModule_imports</title>
<polygon fill="none" stroke="black" points="432,-78 432,-130 576,-130 576,-78 432,-78"/>
</g>
<g id="clust25" class="cluster">
<title>cluster_AppModule_bootstrap</title>
<polygon fill="none" stroke="black" points="1881,-208 1881,-260 2005,-260 2005,-208 1881,-208"/>
</g>
<g id="clust26" class="cluster">
<title>cluster_AppModule_providers</title>
<polygon fill="none" stroke="black" points="16,-78 16,-130 424,-130 424,-78 16,-78"/>
</g>
<!-- AboutUsComponent -->
<g id="node1" class="node">
<title>AboutUsComponent</title>
<polygon fill="#ffffb3" stroke="black" points="3832.88,-122 3701.12,-122 3701.12,-86 3832.88,-86 3832.88,-122"/>
<text text-anchor="middle" x="3767" y="-99.8" font-family="Times,serif" font-size="14.00">AboutUsComponent</text>
</g>
<!-- AppModule -->
<g id="node21" class="node">
<title>AppModule</title>
<polygon fill="#8dd3c7" stroke="black" points="1984.66,-187 1981.66,-191 1960.66,-191 1957.66,-187 1901.34,-187 1901.34,-151 1984.66,-151 1984.66,-187"/>
<text text-anchor="middle" x="1943" y="-164.8" font-family="Times,serif" font-size="14.00">AppModule</text>
</g>
<!-- AboutUsComponent&#45;&gt;AppModule -->
<g id="edge1" class="edge">
<title>AboutUsComponent&#45;&gt;AppModule</title>
<path fill="none" stroke="black" d="M3767,-122.15C3767,-145.76 3767,-184 3767,-184 3767,-184 1994.96,-184 1994.96,-184"/>
<polygon fill="black" stroke="black" points="1994.96,-180.5 1984.96,-184 1994.96,-187.5 1994.96,-180.5"/>
</g>
<!-- AccountSettingsComponent -->
<g id="node2" class="node">
<title>AccountSettingsComponent</title>
<polygon fill="#ffffb3" stroke="black" points="3682.87,-122 3509.13,-122 3509.13,-86 3682.87,-86 3682.87,-122"/>
<text text-anchor="middle" x="3596" y="-99.8" font-family="Times,serif" font-size="14.00">AccountSettingsComponent</text>
</g>
<!-- AccountSettingsComponent&#45;&gt;AppModule -->
<g id="edge2" class="edge">
<title>AccountSettingsComponent&#45;&gt;AppModule</title>
<path fill="none" stroke="black" d="M3596,-122.25C3596,-145.02 3596,-181 3596,-181 3596,-181 1994.69,-181 1994.69,-181"/>
<polygon fill="black" stroke="black" points="1994.69,-177.5 1984.69,-181 1994.69,-184.5 1994.69,-177.5"/>
</g>
<!-- AdminLandpageComponent -->
<g id="node3" class="node">
<title>AdminLandpageComponent</title>
<polygon fill="#ffffb3" stroke="black" points="3490.92,-122 3315.08,-122 3315.08,-86 3490.92,-86 3490.92,-122"/>
<text text-anchor="middle" x="3403" y="-99.8" font-family="Times,serif" font-size="14.00">AdminLandpageComponent</text>
</g>
<!-- AdminLandpageComponent&#45;&gt;AppModule -->
<g id="edge3" class="edge">
<title>AdminLandpageComponent&#45;&gt;AppModule</title>
<path fill="none" stroke="black" d="M3403,-122.29C3403,-144.21 3403,-178 3403,-178 3403,-178 1994.73,-178 1994.73,-178"/>
<polygon fill="black" stroke="black" points="1994.73,-174.5 1984.73,-178 1994.73,-181.5 1994.73,-174.5"/>
</g>
<!-- AppComponent -->
<g id="node4" class="node">
<title>AppComponent</title>
<polygon fill="#ffffb3" stroke="black" points="3297.94,-122 3192.06,-122 3192.06,-86 3297.94,-86 3297.94,-122"/>
<text text-anchor="middle" x="3245" y="-99.8" font-family="Times,serif" font-size="14.00">AppComponent</text>
</g>
<!-- AppComponent&#45;&gt;AppModule -->
<g id="edge4" class="edge">
<title>AppComponent&#45;&gt;AppModule</title>
<path fill="none" stroke="black" d="M3245,-122.28C3245,-143.32 3245,-175 3245,-175 3245,-175 1994.85,-175 1994.85,-175"/>
<polygon fill="black" stroke="black" points="1994.85,-171.5 1984.85,-175 1994.85,-178.5 1994.85,-171.5"/>
</g>
<!-- FooterComponent -->
<g id="node5" class="node">
<title>FooterComponent</title>
<polygon fill="#ffffb3" stroke="black" points="3173.88,-122 3056.12,-122 3056.12,-86 3173.88,-86 3173.88,-122"/>
<text text-anchor="middle" x="3115" y="-99.8" font-family="Times,serif" font-size="14.00">FooterComponent</text>
</g>
<!-- FooterComponent&#45;&gt;AppModule -->
<g id="edge5" class="edge">
<title>FooterComponent&#45;&gt;AppModule</title>
<path fill="none" stroke="black" d="M3115,-122.22C3115,-142.37 3115,-172 3115,-172 3115,-172 1994.71,-172 1994.71,-172"/>
<polygon fill="black" stroke="black" points="1994.71,-168.5 1984.71,-172 1994.71,-175.5 1994.71,-168.5"/>
</g>
<!-- HeaderComponent -->
<g id="node6" class="node">
<title>HeaderComponent</title>
<polygon fill="#ffffb3" stroke="black" points="3037.74,-122 2916.26,-122 2916.26,-86 3037.74,-86 3037.74,-122"/>
<text text-anchor="middle" x="2977" y="-99.8" font-family="Times,serif" font-size="14.00">HeaderComponent</text>
</g>
<!-- HeaderComponent&#45;&gt;AppModule -->
<g id="edge6" class="edge">
<title>HeaderComponent&#45;&gt;AppModule</title>
<path fill="none" stroke="black" d="M2977,-122.11C2977,-141.34 2977,-169 2977,-169 2977,-169 1994.81,-169 1994.81,-169"/>
<polygon fill="black" stroke="black" points="1994.81,-165.5 1984.81,-169 1994.81,-172.5 1994.81,-165.5"/>
</g>
<!-- LoginComponent -->
<g id="node7" class="node">
<title>LoginComponent</title>
<polygon fill="#ffffb3" stroke="black" points="2898.28,-122 2783.72,-122 2783.72,-86 2898.28,-86 2898.28,-122"/>
<text text-anchor="middle" x="2841" y="-99.8" font-family="Times,serif" font-size="14.00">LoginComponent</text>
</g>
<!-- LoginComponent&#45;&gt;AppModule -->
<g id="edge7" class="edge">
<title>LoginComponent&#45;&gt;AppModule</title>
<path fill="none" stroke="black" d="M2841,-122.27C2841,-140.56 2841,-166 2841,-166 2841,-166 1994.81,-166 1994.81,-166"/>
<polygon fill="black" stroke="black" points="1994.81,-162.5 1984.81,-166 1994.81,-169.5 1994.81,-162.5"/>
</g>
<!-- ProjectCreatorComponent -->
<g id="node8" class="node">
<title>ProjectCreatorComponent</title>
<polygon fill="#ffffb3" stroke="black" points="2765.46,-122 2602.54,-122 2602.54,-86 2765.46,-86 2765.46,-122"/>
<text text-anchor="middle" x="2684" y="-99.8" font-family="Times,serif" font-size="14.00">ProjectCreatorComponent</text>
</g>
<!-- ProjectCreatorComponent&#45;&gt;AppModule -->
<g id="edge8" class="edge">
<title>ProjectCreatorComponent&#45;&gt;AppModule</title>
<path fill="none" stroke="black" d="M2684,-122.02C2684,-139.37 2684,-163 2684,-163 2684,-163 1994.69,-163 1994.69,-163"/>
<polygon fill="black" stroke="black" points="1994.69,-159.5 1984.69,-163 1994.69,-166.5 1994.69,-159.5"/>
</g>
<!-- ProjectItemComponent -->
<g id="node9" class="node">
<title>ProjectItemComponent</title>
<polygon fill="#ffffb3" stroke="black" points="2584.14,-122 2437.86,-122 2437.86,-86 2584.14,-86 2584.14,-122"/>
<text text-anchor="middle" x="2511" y="-99.8" font-family="Times,serif" font-size="14.00">ProjectItemComponent</text>
</g>
<!-- ProjectItemComponent&#45;&gt;AppModule -->
<g id="edge9" class="edge">
<title>ProjectItemComponent&#45;&gt;AppModule</title>
<path fill="none" stroke="black" d="M2511,-122.03C2511,-138.4 2511,-160 2511,-160 2511,-160 1994.77,-160 1994.77,-160"/>
<polygon fill="black" stroke="black" points="1994.77,-156.5 1984.77,-160 1994.77,-163.5 1994.77,-156.5"/>
</g>
<!-- ProjectModifierComponent -->
<g id="node10" class="node">
<title>ProjectModifierComponent</title>
<polygon fill="#ffffb3" stroke="black" points="2419.25,-122 2248.75,-122 2248.75,-86 2419.25,-86 2419.25,-122"/>
<text text-anchor="middle" x="2334" y="-99.8" font-family="Times,serif" font-size="14.00">ProjectModifierComponent</text>
</g>
<!-- ProjectModifierComponent&#45;&gt;AppModule -->
<g id="edge10" class="edge">
<title>ProjectModifierComponent&#45;&gt;AppModule</title>
<path fill="none" stroke="black" d="M2334,-122.24C2334,-137.57 2334,-157 2334,-157 2334,-157 1994.84,-157 1994.84,-157"/>
<polygon fill="black" stroke="black" points="1994.84,-153.5 1984.84,-157 1994.84,-160.5 1994.84,-153.5"/>
</g>
<!-- RegisterComponent -->
<g id="node11" class="node">
<title>RegisterComponent</title>
<polygon fill="#ffffb3" stroke="black" points="2230.98,-122 2103.02,-122 2103.02,-86 2230.98,-86 2230.98,-122"/>
<text text-anchor="middle" x="2167" y="-99.8" font-family="Times,serif" font-size="14.00">RegisterComponent</text>
</g>
<!-- RegisterComponent&#45;&gt;AppModule -->
<g id="edge11" class="edge">
<title>RegisterComponent&#45;&gt;AppModule</title>
<path fill="none" stroke="black" d="M2167,-122.05C2167,-136.37 2167,-154 2167,-154 2167,-154 1994.87,-154 1994.87,-154"/>
<polygon fill="black" stroke="black" points="1994.87,-150.5 1984.87,-154 1994.87,-157.5 1994.87,-150.5"/>
</g>
<!-- SupportComponent -->
<g id="node12" class="node">
<title>SupportComponent</title>
<polygon fill="#ffffb3" stroke="black" points="2084.67,-122 1959.33,-122 1959.33,-86 2084.67,-86 2084.67,-122"/>
<text text-anchor="middle" x="2022" y="-99.8" font-family="Times,serif" font-size="14.00">SupportComponent</text>
</g>
<!-- SupportComponent&#45;&gt;AppModule -->
<g id="edge12" class="edge">
<title>SupportComponent&#45;&gt;AppModule</title>
<path fill="none" stroke="black" d="M1972,-122.11C1972,-122.11 1972,-140.99 1972,-140.99"/>
<polygon fill="black" stroke="black" points="1968.5,-140.99 1972,-150.99 1975.5,-140.99 1968.5,-140.99"/>
</g>
<!-- TaskArchiveComponent -->
<g id="node13" class="node">
<title>TaskArchiveComponent</title>
<polygon fill="#ffffb3" stroke="black" points="1940.63,-122 1787.37,-122 1787.37,-86 1940.63,-86 1940.63,-122"/>
<text text-anchor="middle" x="1864" y="-99.8" font-family="Times,serif" font-size="14.00">TaskArchiveComponent</text>
</g>
<!-- TaskArchiveComponent&#45;&gt;AppModule -->
<g id="edge13" class="edge">
<title>TaskArchiveComponent&#45;&gt;AppModule</title>
<path fill="none" stroke="black" d="M1920.99,-122.11C1920.99,-122.11 1920.99,-140.99 1920.99,-140.99"/>
<polygon fill="black" stroke="black" points="1917.49,-140.99 1920.99,-150.99 1924.49,-140.99 1917.49,-140.99"/>
</g>
<!-- TaskCreatorComponent -->
<g id="node14" class="node">
<title>TaskCreatorComponent</title>
<polygon fill="#ffffb3" stroke="black" points="1769.02,-122 1618.98,-122 1618.98,-86 1769.02,-86 1769.02,-122"/>
<text text-anchor="middle" x="1694" y="-99.8" font-family="Times,serif" font-size="14.00">TaskCreatorComponent</text>
</g>
<!-- TaskCreatorComponent&#45;&gt;AppModule -->
<g id="edge14" class="edge">
<title>TaskCreatorComponent&#45;&gt;AppModule</title>
<path fill="none" stroke="black" d="M1694,-122.05C1694,-136.37 1694,-154 1694,-154 1694,-154 1891.32,-154 1891.32,-154"/>
<polygon fill="black" stroke="black" points="1891.32,-157.5 1901.32,-154 1891.32,-150.5 1891.32,-157.5"/>
</g>
<!-- TaskDetailsComponent -->
<g id="node15" class="node">
<title>TaskDetailsComponent</title>
<polygon fill="#ffffb3" stroke="black" points="1601.2,-122 1452.8,-122 1452.8,-86 1601.2,-86 1601.2,-122"/>
<text text-anchor="middle" x="1527" y="-99.8" font-family="Times,serif" font-size="14.00">TaskDetailsComponent</text>
</g>
<!-- TaskDetailsComponent&#45;&gt;AppModule -->
<g id="edge15" class="edge">
<title>TaskDetailsComponent&#45;&gt;AppModule</title>
<path fill="none" stroke="black" d="M1527,-122.24C1527,-137.57 1527,-157 1527,-157 1527,-157 1891.21,-157 1891.21,-157"/>
<polygon fill="black" stroke="black" points="1891.21,-160.5 1901.21,-157 1891.21,-153.5 1891.21,-160.5"/>
</g>
<!-- TaskItemComponent -->
<g id="node16" class="node">
<title>TaskItemComponent</title>
<polygon fill="#ffffb3" stroke="black" points="1435.2,-122 1300.8,-122 1300.8,-86 1435.2,-86 1435.2,-122"/>
<text text-anchor="middle" x="1368" y="-99.8" font-family="Times,serif" font-size="14.00">TaskItemComponent</text>
</g>
<!-- TaskItemComponent&#45;&gt;AppModule -->
<g id="edge16" class="edge">
<title>TaskItemComponent&#45;&gt;AppModule</title>
<path fill="none" stroke="black" d="M1368,-122.03C1368,-138.4 1368,-160 1368,-160 1368,-160 1891.18,-160 1891.18,-160"/>
<polygon fill="black" stroke="black" points="1891.18,-163.5 1901.18,-160 1891.18,-156.5 1891.18,-163.5"/>
</g>
<!-- TaskManagerComponent -->
<g id="node17" class="node">
<title>TaskManagerComponent</title>
<polygon fill="#ffffb3" stroke="black" points="1283.29,-122 1124.71,-122 1124.71,-86 1283.29,-86 1283.29,-122"/>
<text text-anchor="middle" x="1204" y="-99.8" font-family="Times,serif" font-size="14.00">TaskManagerComponent</text>
</g>
<!-- TaskManagerComponent&#45;&gt;AppModule -->
<g id="edge17" class="edge">
<title>TaskManagerComponent&#45;&gt;AppModule</title>
<path fill="none" stroke="black" d="M1204,-122.02C1204,-139.37 1204,-163 1204,-163 1204,-163 1891.15,-163 1891.15,-163"/>
<polygon fill="black" stroke="black" points="1891.15,-166.5 1901.15,-163 1891.15,-159.5 1891.15,-166.5"/>
</g>
<!-- TaskModifierComponent -->
<g id="node18" class="node">
<title>TaskModifierComponent</title>
<polygon fill="#ffffb3" stroke="black" points="1107.31,-122 948.69,-122 948.69,-86 1107.31,-86 1107.31,-122"/>
<text text-anchor="middle" x="1028" y="-99.8" font-family="Times,serif" font-size="14.00">TaskModifierComponent</text>
</g>
<!-- TaskModifierComponent&#45;&gt;AppModule -->
<g id="edge18" class="edge">
<title>TaskModifierComponent&#45;&gt;AppModule</title>
<path fill="none" stroke="black" d="M1028,-122.27C1028,-140.56 1028,-166 1028,-166 1028,-166 1891.31,-166 1891.31,-166"/>
<polygon fill="black" stroke="black" points="1891.31,-169.5 1901.31,-166 1891.31,-162.5 1891.31,-169.5"/>
</g>
<!-- UserLandpageComponent -->
<g id="node19" class="node">
<title>UserLandpageComponent</title>
<polygon fill="#ffffb3" stroke="black" points="930.46,-122 767.54,-122 767.54,-86 930.46,-86 930.46,-122"/>
<text text-anchor="middle" x="849" y="-99.8" font-family="Times,serif" font-size="14.00">UserLandpageComponent</text>
</g>
<!-- UserLandpageComponent&#45;&gt;AppModule -->
<g id="edge19" class="edge">
<title>UserLandpageComponent&#45;&gt;AppModule</title>
<path fill="none" stroke="black" d="M849,-122.11C849,-141.34 849,-169 849,-169 849,-169 1891.12,-169 1891.12,-169"/>
<polygon fill="black" stroke="black" points="1891.12,-172.5 1901.12,-169 1891.12,-165.5 1891.12,-172.5"/>
</g>
<!-- UserManagerComponent -->
<g id="node20" class="node">
<title>UserManagerComponent</title>
<polygon fill="#ffffb3" stroke="black" points="749.51,-122 592.49,-122 592.49,-86 749.51,-86 749.51,-122"/>
<text text-anchor="middle" x="671" y="-99.8" font-family="Times,serif" font-size="14.00">UserManagerComponent</text>
</g>
<!-- UserManagerComponent&#45;&gt;AppModule -->
<g id="edge20" class="edge">
<title>UserManagerComponent&#45;&gt;AppModule</title>
<path fill="none" stroke="black" d="M671,-122.22C671,-142.37 671,-172 671,-172 671,-172 1891.04,-172 1891.04,-172"/>
<polygon fill="black" stroke="black" points="1891.04,-175.5 1901.04,-172 1891.04,-168.5 1891.04,-175.5"/>
</g>
<!-- AppComponent  -->
<g id="node23" class="node">
<title>AppComponent </title>
<polygon fill="#80b1d3" stroke="black" points="1997.44,-252 1888.56,-252 1888.56,-216 1997.44,-216 1997.44,-252"/>
<text text-anchor="middle" x="1943" y="-229.8" font-family="Times,serif" font-size="14.00">AppComponent </text>
</g>
<!-- AppModule&#45;&gt;AppComponent  -->
<g id="edge22" class="edge">
<title>AppModule&#45;&gt;AppComponent </title>
<path fill="none" stroke="black" stroke-dasharray="1,5" d="M1943,-187.11C1943,-187.11 1943,-205.99 1943,-205.99"/>
<polygon fill="black" stroke="black" points="1939.5,-205.99 1943,-215.99 1946.5,-205.99 1939.5,-205.99"/>
</g>
<!-- AppRoutingModule -->
<g id="node22" class="node">
<title>AppRoutingModule</title>
<polygon fill="#8dd3c7" stroke="black" points="568.27,-122 565.27,-126 544.27,-126 541.27,-122 439.73,-122 439.73,-86 568.27,-86 568.27,-122"/>
<text text-anchor="middle" x="504" y="-99.8" font-family="Times,serif" font-size="14.00">AppRoutingModule</text>
</g>
<!-- AppRoutingModule&#45;&gt;AppModule -->
<g id="edge21" class="edge">
<title>AppRoutingModule&#45;&gt;AppModule</title>
<path fill="none" stroke="black" d="M504,-122.28C504,-143.32 504,-175 504,-175 504,-175 1891.1,-175 1891.1,-175"/>
<polygon fill="black" stroke="black" points="1891.1,-178.5 1901.1,-175 1891.1,-171.5 1891.1,-178.5"/>
</g>
<!-- EmailService -->
<g id="node24" class="node">
<title>EmailService</title>
<ellipse fill="#fdb462" stroke="black" cx="353" cy="-104" rx="63.12" ry="18"/>
<text text-anchor="middle" x="353" y="-99.8" font-family="Times,serif" font-size="14.00">EmailService</text>
</g>
<!-- EmailService&#45;&gt;AppModule -->
<g id="edge23" class="edge">
<title>EmailService&#45;&gt;AppModule</title>
<path fill="none" stroke="black" d="M353,-122.29C353,-144.21 353,-178 353,-178 353,-178 1891.29,-178 1891.29,-178"/>
<polygon fill="black" stroke="black" points="1891.29,-181.5 1901.29,-178 1891.29,-174.5 1891.29,-181.5"/>
</g>
<!-- ExcelService -->
<g id="node25" class="node">
<title>ExcelService</title>
<ellipse fill="#fdb462" stroke="black" cx="210" cy="-104" rx="61.95" ry="18"/>
<text text-anchor="middle" x="210" y="-99.8" font-family="Times,serif" font-size="14.00">ExcelService</text>
</g>
<!-- ExcelService&#45;&gt;AppModule -->
<g id="edge24" class="edge">
<title>ExcelService&#45;&gt;AppModule</title>
<path fill="none" stroke="black" d="M210,-122.25C210,-145.02 210,-181 210,-181 210,-181 1891.02,-181 1891.02,-181"/>
<polygon fill="black" stroke="black" points="1891.02,-184.5 1901.02,-181 1891.02,-177.5 1891.02,-184.5"/>
</g>
<!-- PdfService -->
<g id="node26" class="node">
<title>PdfService</title>
<ellipse fill="#fdb462" stroke="black" cx="77" cy="-104" rx="53.31" ry="18"/>
<text text-anchor="middle" x="77" y="-99.8" font-family="Times,serif" font-size="14.00">PdfService</text>
</g>
<!-- PdfService&#45;&gt;AppModule -->
<g id="edge25" class="edge">
<title>PdfService&#45;&gt;AppModule</title>
<path fill="none" stroke="black" d="M77,-122.15C77,-145.76 77,-184 77,-184 77,-184 1890.97,-184 1890.97,-184"/>
<polygon fill="black" stroke="black" points="1890.97,-187.5 1900.97,-184 1890.97,-180.5 1890.97,-187.5"/>
</g>
</g>
</svg>
